<svg version="1.1" xmlns="http://www.w3.org/2000/svg" viewBox="0 0 14 24"><path d="M 13.992188 23.859375 C 13.96875 23.953125 13.871094 24 13.707031 24 L 10.496094 24 C 10.304688 24 10.136719 23.917969 9.992188 23.753906 L 4.691406 17.164062 L 3.214844 18.539062 L 3.214844 23.648438 C 3.214844 23.882812 3.09375 24 2.855469 24 L 0.367188 24 C 0.125 24 0.0078125 23.882812 0.0078125 23.648438 L 0.0078125 0.351562 C 0.0078125 0.117188 0.125 0 0.367188 0 L 2.855469 0 C 3.09375 0 3.214844 0.117188 3.214844 0.351562 L 3.214844 14.695312 L 9.558594 8.421875 C 9.726562 8.257812 9.894531 8.175781 10.0625 8.175781 L 13.378906 8.175781 C 13.714844 8.175781 13.757812 8.546875 13.632812 8.667969 L 6.925781 15.011719 L 13.921875 23.507812"></path>
</svg>
