<?xml version="1.0" encoding="UTF-8"?>
<svg xmlns="http://www.w3.org/2000/svg" xmlns:xlink="http://www.w3.org/1999/xlink" width="24pt" height="24pt" viewBox="4 0 24 24" version="1.1">
<g id="surface1">
<path d="M 15.5625 13.40625 L 8.582031 9.289062 L 9.460938 7.796875 L 16.441406 11.914062 Z M 15.5625 13.40625 "/>
<path d="M 14.996094 15.554688 L 7.167969 13.449219 L 7.621094 11.777344 L 15.445312 13.882812 Z M 14.996094 15.554688 "/>
<path d="M 14.8125 17.871094 L 6.742188 17.125 L 6.898438 15.402344 L 14.96875 16.144531 Z M 14.8125 17.871094 "/>
<path d="M 6.625 18.355469 L 14.730469 18.355469 L 14.730469 20.085938 L 6.625 20.085938 Z M 6.625 18.355469 "/>
<path d="M 17.492188 22.421875 C 17.492188 22.421875 17.492188 22.824219 17.476562 22.824219 L 17.476562 22.832031 L 4.511719 22.832031 C 4.511719 22.832031 4.105469 22.832031 4.105469 22.824219 L 4.09375 22.824219 L 4.09375 14.390625 L 5.476562 14.390625 L 5.476562 21.46875 L 16.105469 21.46875 L 16.105469 14.390625 L 17.492188 14.390625 Z M 17.492188 22.421875 "/>
<path d="M 13.613281 3.933594 L 18.179688 10.628906 L 16.75 11.605469 L 12.183594 4.910156 Z M 13.613281 3.933594 "/>
<path d="M 18.816406 2.25 L 20.203125 10.234375 L 18.496094 10.53125 L 17.109375 2.546875 Z M 18.816406 2.25 "/>
</g>
</svg>
